<svg xmlns="http://www.w3.org/2000/svg" viewBox="0 0 64 64" width="64" height="64">
  <!-- Concept 3: Starburst knot — interlocking paths, like Anthropic's ✻ but unique -->
  <g fill="none" stroke="#141413" stroke-width="2.5" stroke-linecap="round" stroke-linejoin="round">
    <!-- Six petals radiating from center -->
    <path d="M32 8 L32 26 Q32 32 26 32 L8 32"/>
    <path d="M32 56 L32 38 Q32 32 38 32 L56 32"/>
    <path d="M12 16 L26 28 Q32 32 32 38 L32 56" opacity="0"/>
    <path d="M56 32 L38 32 Q32 32 28 26 L16 12"/>
    <path d="M48 16 L36 28 Q32 32 32 38 L32 56" opacity="0"/>
    <path d="M8 32 L26 32 Q32 32 36 38 L48 52"/>
  </g>
  <!-- Center -->
  <circle cx="32" cy="32" r="3.5" fill="#D97757"/>
</svg>
